<svg width="20" height="20" viewBox="0 0 20 20" fill="none" xmlns="http://www.w3.org/2000/svg">
<path fill-rule="evenodd" clip-rule="evenodd" d="M18.979 4.36284C18.9532 4.33213 18.9106 4.32171 18.8743 4.33846C18.3361 4.57945 17.77 4.7527 17.1869 4.85505C17.8059 4.38498 18.2672 3.73403 18.5037 2.98761C18.5151 2.95188 18.5033 2.9128 18.4744 2.88954C18.4453 2.86628 18.4049 2.8633 18.373 2.88247C17.6758 3.29987 16.9206 3.59409 16.1276 3.75729C15.4248 3.0211 14.4435 2.59998 13.4278 2.59998C11.3623 2.59998 9.68211 4.29603 9.68211 6.38083C9.68211 6.63299 9.70626 6.88273 9.75419 7.12521C6.89336 6.94693 4.21836 5.56053 2.3995 3.30862C2.38088 3.28554 2.35268 3.2727 2.32318 3.27568C2.29387 3.27791 2.26769 3.29466 2.25294 3.32016C1.9211 3.89481 1.74578 4.55228 1.74578 5.2211C1.74578 6.38027 2.2675 7.46408 3.15591 8.17924C2.69853 8.12378 2.25183 7.97844 1.84902 7.75271C1.82192 7.73727 1.78818 7.73745 1.76108 7.75327C1.73398 7.7689 1.71683 7.79793 1.7161 7.82957L1.71573 7.87795C1.71573 9.54274 2.8025 11.0045 4.3487 11.4898C3.94145 11.5561 3.51891 11.5516 3.10356 11.4716C3.07295 11.4658 3.04088 11.4764 3.01986 11.5003C2.99903 11.5241 2.99202 11.5574 3.00161 11.5875C3.46526 13.0484 4.75354 14.0728 6.25309 14.2005C5.00224 15.1255 3.5237 15.6129 1.96147 15.6129C1.67369 15.6129 1.38389 15.5956 1.09998 15.5619C1.05942 15.5573 1.01923 15.5817 1.00522 15.6209C0.991209 15.6606 1.00614 15.7049 1.04117 15.7274C2.73171 16.8218 4.68643 17.4 6.69425 17.4C13.2619 17.4 17.1865 12.0148 17.1865 6.80866C17.1865 6.66369 17.1837 6.51947 17.178 6.37562C17.8865 5.85251 18.4947 5.21217 18.9851 4.47096C19.007 4.43783 19.0046 4.39373 18.979 4.36284Z" fill="white"/>
</svg>
